# xmcd
#
# Track frame offsets: 
#        150
#        12357
#        25457
#        37965
#        50580
#        63812
#        77235
#        90210
#        104115
#        117812
#        131460
#        145025
#        158557
#        171300
#        183970
#        198040
#        211420
#        223950
#        236797
#        250742
#        264500
#        276897
#        291362
#
# Disc length: 4071 seconds
#
# Revision: 1
# Processed by: cddbd v1.5.2PL0 Copyright (c) Steve Scherf et al.
# Submitted via: ExactAudioCopyFreeDBPlugin 1.0
#
DISCID=4b0fe517
DTITLE=Johnnie Temple - Complete Recorded Works, Vol. 2 (1938-1940)
DYEAR=1994
DGENRE=Blues
TTITLE0=When the Breath Bids Your Girl Friend's Body Goodbye
TTITLE1=Big Leg Woman
TTITLE2=What a Fool I've Been
TTITLE3=Grind Mill
TTITLE4=Between Midnight and Dawn
TTITLE5=Mississippi Woman's Blues (Walkin' Blues)
TTITLE6=Jelly Roll Bert
TTITLE7=Up Today and Down Tomorrow
TTITLE8=Getting Old Blues
TTITLE9=Getting Old Blues
TTITLE10=The Sun Goes Down in Blood
TTITLE11=Better Not Let My Good Gal Catch You Here
TTITLE12=If I Could Holler
TTITLE13=If I Could Holler
TTITLE14=Streamline Blues
TTITLE15=Good Suzie (Rusty Knees)
TTITLE16=Down in Mississippi
TTITLE17=Evil Bad Woman
TTITLE18=Cherry Ball
TTITLE19=Let's Get Together
TTITLE20=Good Woman Blues
TTITLE21=Skin and Bones Woman
TTITLE22=Skin and Bones Woman
EXTD=
EXTT0=
EXTT1=
EXTT2=
EXTT3=
EXTT4=
EXTT5=
EXTT6=
EXTT7=
EXTT8=
EXTT9=
EXTT10=
EXTT11=
EXTT12=
EXTT13=
EXTT14=
EXTT15=
EXTT16=
EXTT17=
EXTT18=
EXTT19=
EXTT20=
EXTT21=
EXTT22=
PLAYORDER=
